<svg width="183" height="40" viewBox="0 0 183 40" fill="none" xmlns="http://www.w3.org/2000/svg">
<path d="M22.4356 29.3008H17.4138C16.8307 29.3008 16.3564 28.7938 16.3564 28.1663V12.8633C20.2962 12.8633 23.4913 16.2895 23.4913 20.5185V28.1663C23.4913 28.792 23.0188 29.3008 22.4356 29.3008Z" fill="#00365F"/>
<path d="M16.3584 20.5185V12.8633H30.3171C30.4858 12.8633 30.6263 13.014 30.6192 13.195C30.4577 17.2676 27.3276 20.5167 23.4915 20.5167H16.3584V20.5185Z" fill="#44AC8A"/>
<path d="M23.4913 20.5185C23.4913 16.2914 20.298 12.8633 16.3564 12.8633V20.5185H23.4913Z" fill="#001F33"/>
<path d="M14.0202 5.21756C14.1888 5.21002 14.3293 5.35702 14.3293 5.53795C14.3293 8.01431 14.3293 23.7847 14.3293 28.1607C14.3293 28.7845 13.8604 29.2858 13.2807 29.2877C11.93 29.2915 9.59915 29.2971 8.24666 29.299C7.66527 29.3009 7.19629 28.794 7.19629 28.1702V12.8634C7.19629 8.74743 10.2245 5.39095 14.0202 5.21756Z" fill="#00365F"/>
<path d="M59.6165 16.6079C56.1369 16.6079 53.251 19.2124 53.251 23.0928C53.251 26.9996 56.1369 29.6041 59.6165 29.6041C63.0275 29.6041 65.9134 26.9996 65.9134 23.0928C65.9134 19.2124 63.0275 16.6079 59.6165 16.6079ZM59.6165 26.2872C58.1287 26.2872 56.7762 25.034 56.7762 23.0928C56.7762 21.1762 58.127 19.8984 59.6165 19.8984C61.0357 19.8984 62.3864 21.1762 62.3864 23.0928C62.3864 25.034 61.0357 26.2872 59.6165 26.2872Z" fill="#00365F"/>
<path d="M79.7663 16.9023H76.2533C76.176 16.9023 76.1058 16.9513 76.0741 17.0286L73.4025 23.6417C73.334 23.8113 73.1075 23.8094 73.0425 23.6379L70.543 17.0324C70.5131 16.9532 70.4411 16.9023 70.3621 16.9023H66.8509C66.7104 16.9023 66.6155 17.0569 66.6717 17.1945L71.2842 28.7603C71.3053 28.813 71.3053 28.8733 71.2842 28.9261L69.5804 33.1439C69.5242 33.2814 69.6191 33.436 69.7596 33.436H73.2954C73.3727 33.436 73.4447 33.387 73.4746 33.3097L79.9472 17.1945C80.0016 17.0569 79.9068 16.9023 79.7663 16.9023Z" fill="#00365F"/>
<path d="M90.1295 25.7409C89.6728 25.9708 89.102 26.116 88.6681 26.116C87.7056 26.116 87.1347 25.5996 87.1347 24.3218V20.2567C87.1347 20.1418 87.2225 20.0475 87.3297 20.0475H87.8109C89.3092 20.0475 90.5229 18.7453 90.5229 17.1377C90.5229 17.0227 90.4351 16.9285 90.328 16.9285H87.3297C87.2225 16.9285 87.1347 16.8343 87.1347 16.7193V13.1537C87.1347 12.9935 86.9749 12.8936 86.8449 12.969L83.5708 14.895C83.5076 14.9327 83.4689 15.0024 83.4689 15.0797V16.7193C83.4689 16.8343 83.3811 16.9285 83.274 16.9285H81.5807C81.4736 16.9285 81.3857 17.0227 81.3857 17.1377V19.8383C81.3857 19.9533 81.4736 20.0475 81.5807 20.0475H83.274C83.3811 20.0475 83.4689 20.1418 83.4689 20.2567V24.7157C83.4689 27.9591 85.1868 29.6289 88.0481 29.6289C89.2846 29.6289 90.1927 29.2764 91.0429 28.8015C91.1254 28.7544 91.1658 28.6508 91.1395 28.5546L90.4035 25.8672C90.3701 25.7409 90.2402 25.6844 90.1295 25.7409Z" fill="#00365F"/>
<path d="M100.595 16.8157C100.386 16.7723 100.187 16.7554 99.9325 16.7554C98.3025 16.7554 97.1397 17.5507 96.3212 18.7248C96.2087 18.8869 95.9716 18.8058 95.9716 18.6023V17.7504C95.9716 17.2963 95.6291 16.9269 95.204 16.9269H92.5026C92.3954 16.9269 92.3076 17.0211 92.3076 17.1361V29.0505C92.3076 29.1655 92.3954 29.2597 92.5026 29.2597H95.7749C95.882 29.2597 95.9699 29.1655 95.9699 29.0505V25.4019C95.9699 22.2075 97.3663 20.7828 99.9307 20.7828H100.595L100.747 17.0286C100.755 16.9288 100.69 16.8345 100.595 16.8157Z" fill="#00365F"/>
<path d="M114.619 16.9265H111.347C111.239 16.9265 111.152 17.0207 111.152 17.1357V17.9084C110.258 17.049 109.068 16.5571 107.579 16.5571C104.533 16.5571 101.969 19.2107 101.969 23.0929C101.969 26.9997 104.533 29.6287 107.579 29.6287C109.067 29.6287 110.258 29.1369 111.152 28.2775V29.0502C111.152 29.1651 111.239 29.2594 111.347 29.2594H114.619C114.726 29.2594 114.814 29.1651 114.814 29.0502V17.1376C114.816 17.0207 114.728 16.9265 114.619 16.9265ZM108.334 26.2873C106.732 26.2873 105.564 25.0096 105.564 23.0929C105.564 21.2008 106.732 19.8985 108.334 19.8985C109.822 19.8985 111.152 21.2008 111.152 23.0929C111.152 25.0096 109.824 26.2873 108.334 26.2873Z" fill="#00365F"/>
<path d="M123.954 16.5594C122.632 16.5594 121.543 16.9476 120.691 17.6373C120.564 17.7391 120.382 17.6336 120.382 17.464V13.2406C120.382 13.0804 120.222 12.9805 120.092 13.0559L116.82 14.9801C116.756 15.0177 116.718 15.0875 116.718 15.1647V29.0505C116.718 29.1655 116.806 29.2597 116.913 29.2597H120.185C120.292 29.2597 120.38 29.1655 120.38 29.0505V28.2778C121.274 29.1372 122.463 29.6291 123.953 29.6291C126.998 29.6291 129.563 27.0001 129.563 23.0933C129.565 19.2129 127 16.5594 123.954 16.5594ZM123.199 26.2877C121.711 26.2877 120.382 25.0099 120.382 23.0933C120.382 21.2011 121.71 19.8989 123.199 19.8989C124.801 19.8989 125.969 21.2011 125.969 23.0933C125.969 25.0099 124.801 26.2877 123.199 26.2877Z" fill="#00365F"/>
<path d="M143.519 16.9265H140.247C140.14 16.9265 140.052 17.0207 140.052 17.1357V17.9084C139.158 17.049 137.969 16.5571 136.479 16.5571C133.434 16.5571 130.869 19.2107 130.869 23.0929C130.869 26.9997 133.434 29.6287 136.479 29.6287C137.967 29.6287 139.158 29.1369 140.052 28.2775V29.0502C140.052 29.1651 140.14 29.2594 140.247 29.2594H143.519C143.626 29.2594 143.714 29.1651 143.714 29.0502V17.1376C143.714 17.0207 143.626 16.9265 143.519 16.9265ZM137.235 26.2873C135.633 26.2873 134.465 25.0096 134.465 23.0929C134.465 21.2008 135.633 19.8985 137.235 19.8985C138.722 19.8985 140.052 21.2008 140.052 23.0929C140.05 25.0096 138.722 26.2873 137.235 26.2873Z" fill="#00365F"/>
<path d="M149.776 16.9268H146.527C146.42 16.9268 146.332 17.021 146.332 17.1359V29.2841C146.332 29.874 145.942 30.266 145.369 30.266C145.185 30.266 144.941 30.2189 144.661 30.1359C144.551 30.102 144.435 30.1755 144.414 30.298L143.934 32.9949C143.917 33.0948 143.966 33.1928 144.054 33.2305C144.549 33.4359 145.125 33.6168 145.875 33.6677C148.097 33.8185 149.971 31.9018 149.971 29.5121V17.1359C149.973 17.021 149.885 16.9268 149.776 16.9268Z" fill="#00365F"/>
<path d="M164.046 16.9265H160.773C160.666 16.9265 160.578 17.0207 160.578 17.1357V17.9084C159.684 17.049 158.495 16.5571 157.006 16.5571C153.96 16.5571 151.396 19.2107 151.396 23.0929C151.396 26.9997 153.96 29.6287 157.006 29.6287C158.493 29.6287 159.684 29.1369 160.578 28.2775V29.0502C160.578 29.1651 160.666 29.2594 160.773 29.2594H164.046C164.153 29.2594 164.241 29.1651 164.241 29.0502V17.1376C164.241 17.0207 164.155 16.9265 164.046 16.9265ZM157.761 26.2873C156.159 26.2873 154.991 25.0096 154.991 23.0929C154.991 21.2008 156.159 19.8985 157.761 19.8985C159.249 19.8985 160.578 21.2008 160.578 23.0929C160.578 25.0096 159.25 26.2873 157.761 26.2873Z" fill="#00365F"/>
<path d="M172.765 21.7663L170.064 21.1764C169.331 21.0049 169.194 20.66 169.194 20.3171C169.194 19.8742 169.514 19.3597 170.499 19.3597C171.525 19.3597 172.186 19.9345 172.38 20.6148C172.41 20.7222 172.503 20.792 172.607 20.7712L175.56 20.1418C175.672 20.1173 175.746 19.9948 175.714 19.8779C175.175 17.8652 173.31 16.561 170.547 16.561C167.64 16.561 165.6 18.2063 165.6 20.7373C165.6 22.6785 166.814 23.9072 168.943 24.3237L171.279 24.8156C172.126 24.9871 172.424 25.3075 172.424 25.724C172.424 26.2649 171.897 26.7059 170.937 26.7059C170.018 26.7059 169.178 26.3629 168.94 25.4564C168.911 25.3471 168.817 25.2736 168.713 25.2962L165.52 25.9991C165.414 26.0217 165.341 26.1367 165.365 26.2498C165.846 28.63 168.105 29.627 170.731 29.627C173.754 29.627 175.951 28.2022 175.951 25.4752C175.948 23.6585 174.94 22.2582 172.765 21.7663Z" fill="#00365F"/>
<path d="M51.6401 12.971C50.5072 13.0238 49.5042 13.6099 48.8438 14.5013C48.8262 14.5239 48.8122 14.5484 48.7963 14.571C48.7419 14.6483 48.6874 14.7256 48.6383 14.8047C48.2501 15.4417 48.0235 16.2031 48.0235 17.021V19.1016C47.9901 19.1676 47.9269 19.2128 47.8531 19.2128H41.7862C41.6791 19.2128 41.5913 19.1186 41.5913 19.0036C41.5913 16.7703 41.5913 14.1281 41.5913 13.1406C41.5913 13.0445 41.5157 12.9672 41.4279 12.971C40.6726 13.0049 39.9753 13.2782 39.3992 13.7192C38.4366 14.4523 37.8096 15.6584 37.8096 17.021V20.9956C37.8096 21.0032 37.8131 21.0107 37.8131 21.0182V29.0523C37.8131 29.1673 37.9009 29.2615 38.0081 29.2615H41.3963C41.5034 29.2615 41.5913 29.1673 41.5913 29.0523V22.9613C41.5913 22.8463 41.6791 22.7521 41.7862 22.7521H47.8531C47.9603 22.7521 48.0481 22.8463 48.0481 22.9613V29.0523C48.0481 29.1673 48.1359 29.2615 48.2431 29.2615H51.6085C51.7156 29.2615 51.8034 29.1673 51.8034 29.0523V20.9862V16.8175C51.8034 15.2589 51.8034 13.8134 51.8034 13.1387C51.8034 13.0445 51.7297 12.9653 51.6401 12.971Z" fill="#00365F"/>
</svg>
